PathFileType	4	(X/Y/Z)	C:\Users\Willi\SynologyDrive\Deimel_MSc_Deadlift\Athlete_03\Athlete_3_22_07_06\dl_75\marker_experimental.trc
DataRate	CameraRate	NumFrames	NumMarkers	Units	OrigDataRate	OrigDataStartFrame	OrigNumFrames
200.000000	200.000000	4	59	mm	200.000000	0	2855
Frame#	Time	BR			GLAB			RFHD			LFHD			C7			T6			SPINMOL			SPINM2			SPINM3			T12			BELTOL			BELT2			BELT3			SACROL			SACR2			SACR3			LTHOL			LTH2			LTH3			LSHAOL			LSHA2			LSHA3			LHEE			LTOE			LM5			RTHOL			RTH2			RTH3			RSHAOL			RSHA2			RSHA3			RHEE			RTOE			RM5			STRN			XIPH			LACR			LUAOL			LUA2			LUA3			LLAOL			LLA2			LLA3			LWRU			RACR			RUAOL			RUA2			RUA3			RLAOL			RLA2			RLA3			RWRU			BL			USERMO0			USERMO1			USERMO2			USERMO3			USERMO4			USERMO5			
		X1	Y1	Z1	X2	Y2	Z2	X3	Y3	Z3	X4	Y4	Z4	X5	Y5	Z5	X6	Y6	Z6	X7	Y7	Z7	X8	Y8	Z8	X9	Y9	Z9	X10	Y10	Z10	X11	Y11	Z11	X12	Y12	Z12	X13	Y13	Z13	X14	Y14	Z14	X15	Y15	Z15	X16	Y16	Z16	X17	Y17	Z17	X18	Y18	Z18	X19	Y19	Z19	X20	Y20	Z20	X21	Y21	Z21	X22	Y22	Z22	X23	Y23	Z23	X24	Y24	Z24	X25	Y25	Z25	X26	Y26	Z26	X27	Y27	Z27	X28	Y28	Z28	X29	Y29	Z29	X30	Y30	Z30	X31	Y31	Z31	X32	Y32	Z32	X33	Y33	Z33	X34	Y34	Z34	X35	Y35	Z35	X36	Y36	Z36	X37	Y37	Z37	X38	Y38	Z38	X39	Y39	Z39	X40	Y40	Z40	X41	Y41	Z41	X42	Y42	Z42	X43	Y43	Z43	X44	Y44	Z44	X45	Y45	Z45	X46	Y46	Z46	X47	Y47	Z47	X48	Y48	Z48	X49	Y49	Z49	X50	Y50	Z50	X51	Y51	Z51	X52	Y52	Z52	X53	Y53	Z53	X54	Y54	Z54	X55	Y55	Z55	X56	Y56	Z56	X57	Y57	Z57	X58	Y58	Z58	X59	Y59	Z59	

1	0	199.7928009033203	251.4118194580078	-101.5983200073242	401.6961975097656	1453.95947265625	-1185.997192382812	360.5936279296875	1509.927978515625	-1117.931762695312	373.2924194335938	1501.193237304688	-1268.70849609375	144.6921844482422	1484.5947265625	-1205.042114257812	23.59538078308105	1291.060913085938	-1211.421997070312	13.09534931182861	1260.26953125	-1213.759399414062	-2.755792617797852	1200.48193359375	-1162.858520507812	4.557253360748291	1198.762817382812	-1211.979614257812	11.72077655792236	1149.21142578125	-1207.723266601562	-21.49671363830566	1140.378051757812	-1207.802124023438	-29.558837890625	1081.627075195312	-1154.184936523438	-38.06447982788086	1080.559692382812	-1203.662963867188	-41.16290283203125	1009.470153808594	-1231.560913085938	-33.47214126586914	1019.813720703125	-1181.937133789062	-61.5179443359375	960.8059082031251	-1191.493530273438	103.6999130249023	757.0787353515626	-1427.049682617188	60.76294708251953	691.6851806640626	-1410.863037109375	109.8077774047852	695.7274169921876	-1421.929321289062	74.74419403076172	347.8392639160157	-1412.409057617188	32.58063125610352	281.7775268554689	-1402.953247070312	81.75907897949219	286.4042968750001	-1408.899047851562	4.688255310058594	65.79124450683602	-1318.282592773438	214.0113830566406	74.53462982177743	-1335.821655273438	162.9397583007812	56.04210662841805	-1438.1826171875	97.3572998046875	729.0290527343751	-999.423828125	140.8567199707031	662.4832153320314	-991.580322265625	92.74623870849609	667.0763549804689	-1005.079345703125	50.93466567993164	341.9713439941407	-1009.297241210938	90.15715026855469	273.0783691406251	-1005.634765625	42.52930068969727	281.7866516113282	-1018.902893066406	3.547531127929688	63.89373016357429	-1116.57177734375	210.6016082763672	69.3675613403321	-1073.0625	154.0877075195312	66.40470886230474	-981.9323120117188	253.1229705810547	1353.344360351562	-1212.440795898438	251.5752563476562	1200.232543945312	-1213.123168945312	174.6682586669922	1396.766479492188	-1423.019287109375	161.8597106933594	1249.493408203125	-1495.29736328125	134.67822265625	1190.464111328125	-1510.067260742188	185.5025482177734	1187.943969726562	-1502.412109375	220.5431213378906	977.0119018554689	-1528.411254882812	217.3310089111328	911.3755493164064	-1530.438598632812	259.7273864746094	929.1263427734376	-1510.66552734375	263.3648376464844	828.7868652343751	-1515.360107421875	183.1896514892578	1389.284545898438	-1004.772338867187	194.1330718994141	1216.866333007812	-944.3900756835936	223.3209991455078	1159.080200195312	-958.2825927734374	192.3553009033203	1155.303955078125	-918.0833740234374	242.4531707763672	970.754638671875	-903.8093872070311	275.6877746582031	921.9417724609376	-932.0696411132812	248.4650421142578	907.1424560546875	-891.9075317382812	259.2665405273438	831.1898193359375	-894.6240844726562	180.8870086669922	248.0668182373048	-2324.62939453125	0.02570860087871552	0.2246939986944199	-0.3298619985580444	0.3285380005836487	2.535929918289185	-0.2529239952564238	2.529309988021851	0.006879750173538924	-0.009846050292253494	0.283843994140625	0.007344429846853018	-0.006811069790273904	0.008859310299158096	0.006806060206145048	-0.006771539803594351	0.006871929857879877	0	0	
2	0.005	199.7922058105469	251.4117126464844	-101.5995178222656	403.5200500488281	1451.812744140625	-1185.768920898438	362.6026306152344	1508.125	-1117.87255859375	375.5061950683594	1499.046752929688	-1268.613403320312	146.7182922363281	1483.990112304688	-1205.156372070312	24.16140365600586	1291.402954101562	-1211.4755859375	13.42821407318115	1260.669921875	-1213.781005859375	-2.838750600814819	1201.033447265625	-1162.844482421875	4.422139644622803	1199.244384765625	-1211.977416992188	11.05176639556885	1149.640380859375	-1207.367065429688	-22.09228324890137	1140.895263671875	-1207.812133789062	-30.50533485412598	1082.1904296875	-1154.213256835938	-39.02718353271484	1081.178833007812	-1203.6796875	-42.55796051025391	1009.810302734375	-1231.558471679688	-34.86316680908203	1020.130065917969	-1181.948608398438	-62.99666976928711	961.1831054687501	-1191.506103515625	102.4181442260742	756.9736328125001	-1427.313720703125	59.70181655883789	691.4287109375001	-1411.106079101562	108.722900390625	695.6409912109376	-1422.226440429688	74.483642578125	347.7973022460939	-1412.588256835938	32.37940979003906	281.7053222656251	-1403.109741210938	81.55591583251953	286.3712768554689	-1409.038940429688	4.667148590087891	65.7806930541993	-1318.312255859375	214.0031585693359	74.55027008056649	-1335.833862304688	162.9332122802734	56.03038406372079	-1438.1904296875	96.29603576660156	728.8923950195314	-999.2427368164062	140.1020965576172	662.5299072265626	-991.4602661132812	91.93280029296875	666.9159545898439	-1004.837463378906	50.84590148925781	341.9004516601563	-1009.120666503906	90.101318359375	273.0216064453126	-1005.520812988281	42.45841217041016	281.7167968750001	-1018.758666992188	3.536678552627563	63.87930679321296	-1116.556274414062	210.5980682373047	69.3731765747071	-1073.0615234375	154.0874938964844	66.40265655517584	-981.9330444335938	254.2892303466797	1351.994262695312	-1212.49658203125	251.6752166748047	1198.926391601562	-1213.143676757812	176.4629516601562	1395.908081054688	-1423.046264648438	163.1192169189453	1248.849609375	-1495.39208984375	135.6553955078125	1189.978515625	-1510.298095703125	186.4522705078125	1187.191772460938	-1502.513916015625	220.7760772705078	976.1799316406251	-1528.615234375	217.4175262451172	910.5506591796876	-1530.641357421875	259.826171875	928.2117309570314	-1510.81787109375	263.2428894042969	827.8631591796876	-1515.493041992188	184.98876953125	1388.51416015625	-1004.921875	195.2207794189453	1216.244018554688	-944.3665161132811	224.0918121337891	1158.285400390625	-958.2445068359374	193.2339172363281	1154.727416992188	-917.9453124999999	242.7407531738281	970.0933227539062	-903.5756835937499	275.7261962890625	921.1486206054689	-931.9074096679688	248.6199951171875	906.4861450195312	-891.6111450195312	259.2286682128906	830.5048217773438	-894.2841186523438	180.8783874511719	248.0509033203126	-2324.60107421875	0.02638079971075058	0.2264800071716309	-0.339150995016098	0.3349849879741669	2.618350028991699	-0.2624450027942656	2.595160007476807	0.007044719997793437	-0.009921509772539139	0.2894299924373627	0.007549230009317398	-0.006949590053409337	0.009124229662120342	0.007039759773761034	-0.007014169823378325	0.007083110045641661	0	0	
3	0.01	199.7914886474609	251.4116821289062	-101.6005172729492	405.388671875	1449.58642578125	-1185.540405273438	364.6637268066406	1506.246337890625	-1117.813354492188	377.7690124511719	1496.81884765625	-1268.518310546875	148.8013305664062	1483.335205078125	-1205.2724609375	24.74730110168457	1291.736572265625	-1211.536865234375	13.77432632446289	1261.066040039062	-1213.810791015625	-2.921827554702759	1201.587768554688	-1162.83740234375	4.285464763641357	1199.726318359375	-1211.982055664062	10.35108280181885	1150.079467773438	-1206.97509765625	-22.70310592651367	1141.4169921875	-1207.828979492188	-31.47871208190918	1082.76171875	-1154.248779296875	-40.01569747924805	1081.807739257812	-1203.703491210938	-43.99124145507812	1010.152526855469	-1231.558349609375	-36.29134368896484	1020.448059082031	-1181.963745117188	-64.51972961425781	961.5668334960939	-1191.521484375	101.1040878295898	756.8649902343751	-1427.584716796875	58.61434555053711	691.1644897460939	-1411.35791015625	107.6112899780273	695.5523071289064	-1422.531127929688	74.21426391601562	347.7535400390626	-1412.772216796875	32.17193222045898	281.6305541992189	-1403.270629882812	81.34593200683594	286.3369140625001	-1409.181762695312	4.645324230194092	65.76942443847665	-1318.343139648438	213.9948120117188	74.5662384033204	-1335.846069335938	162.9265441894531	56.01850509643563	-1438.197998046875	95.20639038085938	728.7511596679689	-999.0557861328125	139.3275451660156	662.5769042968751	-991.3423461914062	91.09754180908203	666.7506713867189	-1004.590270996094	50.74793243408203	341.8280334472657	-1008.941650390625	90.0384521484375	272.9649353027344	-1005.40576171875	42.37981033325195	281.6457214355469	-1018.61181640625	3.524753332138062	63.86368942260749	-1116.540161132812	210.5945129394531	69.37899017333991	-1073.06103515625	154.0873565673828	66.4007186889649	-981.9342041015625	255.4842681884766	1350.5791015625	-1212.552856445312	251.7750244140625	1197.565063476562	-1213.164428710938	178.3064270019531	1394.996948242188	-1423.072143554688	164.4185791015625	1248.160034179688	-1495.485717773438	136.6651458740234	1189.454223632812	-1510.534423828125	187.4305877685547	1186.39013671875	-1502.612548828125	221.0171508789062	975.3012695312501	-1528.818115234375	217.5087432861328	909.6793823242189	-1530.84228515625	259.9289245605469	927.2485351562501	-1510.96630859375	263.1226196289062	826.8917846679689	-1515.622314453125	186.8351440429688	1387.687133789062	-1005.076843261719	196.3449554443359	1215.572998046875	-944.3433837890624	224.8877563476562	1157.438110351562	-958.2070922851561	194.1422576904297	1154.105102539062	-917.8075561523436	243.041015625	969.384765625	-903.3417358398436	275.77099609375	920.3047485351564	-931.7485961914062	248.7874908447266	905.7823486328125	-891.3126831054688	259.1971435546875	829.7731323242188	-893.9417724609375	180.8713684082031	248.0383911132814	-2324.578857421875	0.02658979967236519	0.2265660017728806	-0.3468230068683624	0.3394129872322083	2.687959909439087	-0.2704190015792845	2.646759986877441	0.0071700899861753	-0.009911349974572659	0.292497992515564	0.00771602988243103	-0.007039799820631742	0.009287640452384949	0.007251970004290343	-0.00721488008275628	0.007272719871252775	0	0	
4	0.015	199.7906188964844	251.4117584228516	-101.6012878417969	407.2914733886719	1447.289428710938	-1185.313354492188	366.7655639648438	1504.298828125	-1117.75439453125	380.0679321289062	1494.518676757812	-1268.423828125	150.9300689697266	1482.630249023438	-1205.389282226562	25.3501148223877	1292.05859375	-1211.605834960938	14.13180637359619	1261.454467773438	-1213.84912109375	-3.004635334014893	1202.140502929688	-1162.838012695312	4.149384021759033	1200.205200195312	-1211.99462890625	9.622233390808105	1150.524047851562	-1206.556396484375	-23.32604789733887	1141.939453125	-1207.85302734375	-32.47472763061523	1083.33740234375	-1154.291259765625	-41.02484893798828	1082.442260742188	-1203.734619140625	-45.45505142211914	1010.493591308594	-1231.560180664062	-37.74888229370117	1020.765625	-1181.982177734375	-66.07929992675781	961.9537963867189	-1191.53955078125	99.76526641845703	756.7536010742189	-1427.860107421875	57.50659942626953	690.8939819335939	-1411.616821289062	106.4792175292969	695.4620971679689	-1422.840209960938	73.93704223632812	347.7081909179689	-1412.959838867188	31.9589958190918	281.5535583496095	-1403.43505859375	81.12991333007812	286.3013305664064	-1409.326538085938	4.622859001159668	65.75736236572274	-1318.375	213.9863586425781	74.58246612548837	-1335.858154296875	162.9198150634766	56.00649261474618	-1438.205322265625	94.09389495849609	728.6057128906251	-998.8642578125	138.536865234375	662.6240234375001	-991.2277221679688	90.24471282958984	666.5811157226564	-1004.339172363281	50.64110946655273	341.7544555664063	-1008.760925292969	89.96884918212891	272.9085388183594	-1005.290222167969	42.29397964477539	281.5736999511719	-1018.462829589844	3.511690855026245	63.84687423706062	-1116.523559570312	210.5910186767578	69.38500213623054	-1073.061157226562	154.0872802734375	66.39888000488287	-981.9359130859375	256.7009887695312	1349.103515625	-1212.609130859375	251.8732147216797	1196.15380859375	-1213.185424804688	180.1888427734375	1394.034790039062	-1423.096801757812	165.7501678466797	1247.425659179688	-1495.577758789062	137.7024230957031	1188.890991210938	-1510.774780273438	188.4327850341797	1185.541137695312	-1502.708618164062	221.2649230957031	974.3778686523439	-1529.0185546875	217.6044311523438	908.7639160156251	-1531.039916992188	260.0350952148438	926.2395019531251	-1511.109497070312	263.0043640136719	825.8754882812501	-1515.74609375	188.7184906005859	1386.803955078125	-1005.235961914062	197.4990844726562	1214.852905273438	-944.3209838867186	225.7039489746094	1156.539428710938	-958.1710205078124	195.0746917724609	1153.436279296875	-917.6708984374999	243.3526153564453	968.6292114257812	-903.1091918945311	275.8224182128906	919.4119262695314	-931.593994140625	248.9669799804688	905.0314331054688	-891.0142822265625	259.1727600097656	828.9955444335938	-893.5994873046875	180.8662261962891	248.0298309326173	-2324.563720703125	0.02631139941513538	0.2251590043306351	-0.3531189858913422	0.342179000377655	2.745630025863647	-0.2768580019474028	2.685620069503784	0.007263880223035813	-0.009835289791226387	0.2931280136108398	0.007844810374081135	-0.007091070059686898	0.009360159747302532	0.007440339773893357	-0.007372510153800248	0.007454019971191883	0	0	
